<svg width="100" height="101" viewBox="0 0 100 101" fill="none" xmlns="http://www.w3.org/2000/svg">
<rect width="100" height="101" rx="23" fill="#E44332"/>
<circle cx="58" cy="82" r="15" fill="#E44332" stroke="white" stroke-width="4"/>
<path d="M31.3477 24.6367L33.3047 13.9375H37.3828L33.7617 31H29.4961L27.2109 21.2734L24.9727 31H20.7188L17.0859 13.9375H21.1758L23.1328 24.6367L25.4766 13.9375H28.9688L31.3477 24.6367ZM42.9727 31H39.0117V18.3203H42.9727V31ZM38.7773 15.0508C38.7773 14.4883 38.9805 14.0273 39.3867 13.668C39.793 13.3086 40.3203 13.1289 40.9688 13.1289C41.6172 13.1289 42.1445 13.3086 42.5508 13.668C42.957 14.0273 43.1602 14.4883 43.1602 15.0508C43.1602 15.6133 42.957 16.0742 42.5508 16.4336C42.1445 16.793 41.6172 16.9727 40.9688 16.9727C40.3203 16.9727 39.793 16.793 39.3867 16.4336C38.9805 16.0742 38.7773 15.6133 38.7773 15.0508ZM52.0547 27.4375C52.0547 27.1016 51.8789 26.832 51.5273 26.6289C51.1758 26.4258 50.5078 26.2148 49.5234 25.9961C48.5391 25.7773 47.7266 25.4922 47.0859 25.1406C46.4453 24.7812 45.957 24.3477 45.6211 23.8398C45.2852 23.332 45.1172 22.75 45.1172 22.0938C45.1172 20.9297 45.5977 19.9727 46.5586 19.2227C47.5195 18.4648 48.7773 18.0859 50.332 18.0859C52.0039 18.0859 53.3477 18.4648 54.3633 19.2227C55.3789 19.9805 55.8867 20.9766 55.8867 22.2109H51.9258C51.9258 21.1953 51.3906 20.6875 50.3203 20.6875C49.9062 20.6875 49.5586 20.8047 49.2773 21.0391C48.9961 21.2656 48.8555 21.5508 48.8555 21.8945C48.8555 22.2461 49.0273 22.5312 49.3711 22.75C49.7148 22.9688 50.2617 23.1484 51.0117 23.2891C51.7695 23.4297 52.4336 23.5977 53.0039 23.793C54.9102 24.4492 55.8633 25.625 55.8633 27.3203C55.8633 28.4766 55.3477 29.418 54.3164 30.1445C53.293 30.8711 51.9648 31.2344 50.332 31.2344C49.2461 31.2344 48.2773 31.0391 47.4258 30.6484C46.5742 30.2578 45.9102 29.7266 45.4336 29.0547C44.957 28.3828 44.7188 27.6758 44.7188 26.9336H48.4102C48.4258 27.5195 48.6211 27.9492 48.9961 28.2227C49.3711 28.4883 49.8516 28.6211 50.4375 28.6211C50.9766 28.6211 51.3789 28.5117 51.6445 28.293C51.918 28.0742 52.0547 27.7891 52.0547 27.4375ZM61.582 19.6797C62.4258 18.6172 63.5039 18.0859 64.8164 18.0859C66.2148 18.0859 67.2695 18.5 67.9805 19.3281C68.6914 20.1562 69.0547 21.3789 69.0703 22.9961V31H65.1094V23.0898C65.1094 22.418 64.9727 21.9258 64.6992 21.6133C64.4258 21.293 63.9609 21.1328 63.3047 21.1328C62.4922 21.1328 61.918 21.3906 61.582 21.9062V31H57.6328V13H61.582V19.6797ZM28.8164 55.8359H35.9766V59H24.7031V41.9375H28.8164V55.8359ZM41.6953 59H37.7344V46.3203H41.6953V59ZM37.5 43.0508C37.5 42.4883 37.7031 42.0273 38.1094 41.668C38.5156 41.3086 39.043 41.1289 39.6914 41.1289C40.3398 41.1289 40.8672 41.3086 41.2734 41.668C41.6797 42.0273 41.8828 42.4883 41.8828 43.0508C41.8828 43.6133 41.6797 44.0742 41.2734 44.4336C40.8672 44.793 40.3398 44.9727 39.6914 44.9727C39.043 44.9727 38.5156 44.793 38.1094 44.4336C37.7031 44.0742 37.5 43.6133 37.5 43.0508ZM50.7773 55.4375C50.7773 55.1016 50.6016 54.832 50.25 54.6289C49.8984 54.4258 49.2305 54.2148 48.2461 53.9961C47.2617 53.7773 46.4492 53.4922 45.8086 53.1406C45.168 52.7812 44.6797 52.3477 44.3438 51.8398C44.0078 51.332 43.8398 50.75 43.8398 50.0938C43.8398 48.9297 44.3203 47.9727 45.2812 47.2227C46.2422 46.4648 47.5 46.0859 49.0547 46.0859C50.7266 46.0859 52.0703 46.4648 53.0859 47.2227C54.1016 47.9805 54.6094 48.9766 54.6094 50.2109H50.6484C50.6484 49.1953 50.1133 48.6875 49.043 48.6875C48.6289 48.6875 48.2812 48.8047 48 49.0391C47.7188 49.2656 47.5781 49.5508 47.5781 49.8945C47.5781 50.2461 47.75 50.5312 48.0938 50.75C48.4375 50.9688 48.9844 51.1484 49.7344 51.2891C50.4922 51.4297 51.1562 51.5977 51.7266 51.793C53.6328 52.4492 54.5859 53.625 54.5859 55.3203C54.5859 56.4766 54.0703 57.418 53.0391 58.1445C52.0156 58.8711 50.6875 59.2344 49.0547 59.2344C47.9688 59.2344 47 59.0391 46.1484 58.6484C45.2969 58.2578 44.6328 57.7266 44.1562 57.0547C43.6797 56.3828 43.4414 55.6758 43.4414 54.9336H47.1328C47.1484 55.5195 47.3438 55.9492 47.7188 56.2227C48.0938 56.4883 48.5742 56.6211 49.1602 56.6211C49.6992 56.6211 50.1016 56.5117 50.3672 56.293C50.6406 56.0742 50.7773 55.7891 50.7773 55.4375ZM61.043 43.168V46.3203H63.1289V49.0625H61.043V54.8633C61.043 55.3398 61.1289 55.6719 61.3008 55.8594C61.4727 56.0469 61.8125 56.1406 62.3203 56.1406C62.7109 56.1406 63.0391 56.1172 63.3047 56.0703V58.8945C62.5938 59.1211 61.8516 59.2344 61.0781 59.2344C59.7188 59.2344 58.7148 58.9141 58.0664 58.2734C57.418 57.6328 57.0938 56.6602 57.0938 55.3555V49.0625H55.4766V46.3203H57.0938V43.168H61.043Z" fill="white"/>
<path d="M88.0758 59.2438L57.036 86.7662C56.2081 87.5003 56.7039 88.8688 57.8099 88.9022C57.9337 88.906 58.0306 89.0104 58.0251 89.1342L57.9946 89.8181C57.9446 90.9411 58.8765 91.861 59.9988 91.7965L62.1134 91.6748C62.9343 91.6276 63.7178 91.3161 64.3471 90.7867L93.8686 65.9506C95.776 64.346 95.9852 61.4846 94.3315 59.6196C92.7078 57.7883 89.907 57.6201 88.0758 59.2438Z" fill="white" stroke="#E44332"/>
<rect x="59.7983" y="93.9083" width="25.2653" height="8.5445" rx="4.27225" transform="rotate(-123.417 59.7983 93.9083)" fill="white" stroke="#E44332"/>
<path d="M61.5879 83.4045L69.6895 76.2583L74.3303 81.5196L66.2286 88.6657L61.5879 83.4045Z" fill="white"/>
<path d="M61.0441 88.6263L64.343 86L66.3692 88.5452L63.0703 91.1715L61.0441 88.6263Z" fill="white"/>
</svg>
